<?xml version="1.0" standalone="no"?>
<!DOCTYPE svg PUBLIC "-//W3C//DTD SVG 1.1//EN" "http://www.w3.org/Graphics/SVG/1.1/DTD/svg11.dtd" >
<svg>
<metadata>
Created by FontForge 20120731 at Sun Oct  7 06:58:59 2018
 By www-data
Generated by Fontographer 4.1. Made by Novandito; Jakarta. October, 30th, 2007
</metadata>
<defs>
<font id="Dungeon" horiz-adv-x="370" >
  <font-face 
    font-family="Dungeon"
    font-weight="400"
    font-stretch="normal"
    units-per-em="1000"
    panose-1="0 0 4 0 0 0 0 0 0 0"
    ascent="800"
    descent="-200"
    x-height="539"
    cap-height="701"
    bbox="10 0 656.058 800"
    underline-thickness="20"
    underline-position="-123"
    unicode-range="U+0020-007E"
  />
<missing-glyph horiz-adv-x="395" 
d="M10 0v800h375v-800h-375zM72 63h250v675h-250v-675z" />
    <glyph glyph-name=".notdef" horiz-adv-x="395" 
d="M10 0v800h375v-800h-375zM72 63h250v675h-250v-675z" />
    <glyph glyph-name="space" unicode=" " horiz-adv-x="122" 
 />
    <glyph glyph-name="exclam" unicode="!" horiz-adv-x="132" 
d="M116 711q-11 19 -40 22q-18 2 -47 -12q-11 -5 -19 -9v-16q3 1 12 5q14 6 15 -8v-6v-19q0 -5 1 -16l23 -312h29l31 337v0q1 23 -5 34zM88 288l-33 -12q-14 -4 -11 -23q-1 -21 11 -21q5 0 12 4q15 9 31 23q6 5 6 19q0 12 -7 12q-4 0 -9 -2z" />
    <glyph glyph-name="quotedbl" unicode="&#x22;" horiz-adv-x="222" 
d="M106 712q0 20 -11 20q-2 0 -54 -17q-21 -7 -17 -34q-2 -32 17 -32q8 0 26 10q2 -9 1 -15q0 -45 -58 -87v-12q93 27 96 151v0v16zM211 712q1 19 -11 19q1 0 -53 -17q-21 -7 -18 -33q-2 -33 17 -33q8 0 26 10q2 -8 2 -14q-1 -46 -59 -87v-13q93 27 96 152v0v16z" />
    <glyph glyph-name="numbersign" unicode="#" horiz-adv-x="387" 
d="M304 558l32 157l-31 6l-34 -163l-106 1l23 109q5 27 3 36t-13 11q-12 2 -41 -6l-2 -14l10 2q12 4 12 -9q-1 -3 -1 -5l-25 -124l-101 1v-32h9l85 -1l-21 -106l-87 1l-6 -29h88l-33 -163l32 -6l34 169l106 -1l-24 -116q-5 -26 -3 -35t13 -11q19 -3 41 6l3 14q-3 -1 -11 -2
q-12 -4 -12 8q1 4 1 6l26 130l78 -1l5 29h-77l21 105l73 -1l6 35l-1 -1h-72zM242 421h-105l22 105l103 -1zM304 558l32 157l-31 6l-34 -163l-106 1l23 109q5 27 3 36t-13 11q-12 2 -41 -6l-2 -14l10 2q12 4 12 -9q-1 -3 -1 -5l-25 -124l-101 1v-32h9l85 -1l-21 -106l-87 1
l-6 -29h88l-33 -163l32 -6l34 169l106 -1l-24 -116q-5 -26 -3 -35t13 -11q19 -3 41 6l3 14q-3 -1 -11 -2q-12 -4 -12 8q1 4 1 6l26 130l78 -1l5 29h-77l21 105l73 -1l6 35l-1 -1h-72zM242 421h-105l22 105l103 -1z" />
    <glyph glyph-name="dollar" unicode="$" horiz-adv-x="353" 
d="M343 361q0 58 -43 99q-26 25 -93 57l1 167q51 -19 66 -52q7 -14 2 -19q-1 -2 -16 -8l10 -10q28 5 33 6q20 6 23 20q3 16 -23 43q-34 36 -94 45v60h-26v-57h-12q-54 1 -92 -32q-41 -35 -41 -87q-1 -56 46 -94q21 -17 97 -55l-1 -205q-82 5 -114 87q-9 22 3 26q6 2 11 4
l-10 11q-16 -3 -34.5 -8t-21.5 -21q-4 -25 33 -64q50 -52 133 -56l-1 -66h26v66q62 3 99.5 42t38.5 101zM93 625q0 30 24 48t55 18q3 0 11 -1l-1 -160q-89 44 -89 95zM205 240l2 191q77 -42 76 -98q-1 -82 -78 -93z" />
    <glyph glyph-name="percent" unicode="%" horiz-adv-x="397" 
d="M179 582q0 46 -19 81q-23 44 -65 44q-43 1 -66 -43q-19 -35 -19 -81q0 -48 18 -81q23 -42 66 -43q42 0 65 42q20 36 20 81zM48 584q0 111 47 111q46 0 45 -112q-1 -111 -46 -111q-46 1 -46 112zM304 462q-42 1 -66 -43q-19 -35 -20 -81t19 -81q23 -43 65 -43q43 -1 66 42
q19 34 19 81t-18 81q-23 43 -65 44zM302 227q-46 0 -45 112q1 111 46 111q46 0 45 -112q0 -111 -46 -111zM81 230q1 1 3 5l240 437q12 22 12 30q0 13 -26 16q-10 1 -17 1l-6 -11l10 -1q12 -1 7 -10q-1 -2 -2 -5l-241 -437q-12 -22 -12 -30q0 -15 27 -16q10 -1 16 -1l6 11
l-9 1q-12 1 -8 10zM179 582q0 46 -19 81q-23 44 -65 44q-43 1 -66 -43q-19 -35 -19 -81q0 -48 18 -81q23 -42 66 -43q42 0 65 42q20 36 20 81zM48 584q0 111 47 111q46 0 45 -112q-1 -111 -46 -111q-46 1 -46 112zM304 462q-42 1 -66 -43q-19 -35 -20 -81t19 -81
q23 -43 65 -43q43 -1 66 42q19 34 19 81t-18 81q-23 43 -65 44zM302 227q-46 0 -45 112q1 111 46 111q46 0 45 -112q0 -111 -46 -111zM81 230q1 1 3 5l240 437q12 22 12 30q0 13 -26 16q-10 1 -17 1l-6 -11l10 -1q12 -1 7 -10q-1 -2 -2 -5l-241 -437q-12 -22 -12 -30
q0 -15 27 -16q10 -1 16 -1l6 11l-9 1q-12 1 -8 10z" />
    <glyph glyph-name="ampersand" unicode="&#x26;" horiz-adv-x="431" 
d="M395 275q-20 0 -73 71q48 56 48 93q0 34 -34 61q-13 -13 -13 -26q0 -7 10 -20t10 -26q0 -25 -34 -64q-37 55 -113 162q50 30 67 46q34 31 34 71q0 35 -35 57q-30 20 -67 20q-42 1 -75 -22.5t-34 -64.5q-1 -42 45 -114q-121 -66 -119 -161q1 -53 41 -92.5t92 -39.5
q71 0 138 69q12 -13 42 -47q19 -22 40 -19q14 2 40 26l16 16l-6 17q-17 -12 -20 -13zM193 692q24 0 41 -17t17 -41q0 -47 -68 -88q-48 70 -47 95q0 22 17 36.5t40 14.5zM177 274q-42 2 -73 41q-29 36 -29 79q1 55 69 104q40 -62 125 -185q-38 -42 -92 -39z" />
    <glyph glyph-name="quotesingle" unicode="'" horiz-adv-x="116" 
d="M106 714q0 19 -12 19q-2 0 -53 -16q-21 -7 -17 -34q-2 -33 17 -33q8 0 25 10q2 -8 2 -14q0 -45 -58 -87v-13q92 27 96 152v0v16z" />
    <glyph glyph-name="parenleft" unicode="(" horiz-adv-x="203" 
d="M98 80q-50 92 -64 130q-24 64 -23 140q1 185 92 331v0q22 40 34 40q10 0 32 -26q5 -6 14 -16l-8 -16q-4 4 -16 15q-7 6 -11 6q-3 0 -4 -3q-84 -130 -85 -331q-1 -72 26 -141q28 -74 78 -121q8 -2 13 4l9 11l8 -16q-19 -29 -49 -45q-6 -4 -11 -4q-13 0 -35 41h1z" />
    <glyph glyph-name="parenright" unicode=")" horiz-adv-x="206" 
d="M104 77q53 97 66 130q26 65 26 139q0 186 -88 332v0q-21 41 -33 41q-11 0 -33 -26q-5 -6 -14 -16l8 -16q20 20 27 20q3 0 4 -2q82 -131 81 -333q-1 -73 -28 -141q-30 -72 -81 -119q-7 -2 -12 5l-9 10l-8 -15q14 -28 48 -46q6 -4 11 -4q13 0 35 40v0v1z" />
    <glyph glyph-name="asterisk" unicode="*" horiz-adv-x="276" 
d="M212 592q54 4 52 28q-1 18 -21 46l-18 -1l7 -12q9 -15 -7 -17q-4 0 -7 -1l-61 -5l9 39q6 26 6 37q0 17 -16 21q-13 3 -29 0q-11 -2 -22 -6l-4 -17l14 2q14 4 14 -11q-1 -4 -1 -7l-15 -60l-34 21q-31 19 -43 19q-21 0 -24 -36q-2 -15 -2 -24l15 -10q1 2 2 14q2 17 15 10
q3 -2 7 -4l52 -32l-33 -28q-32 -28 -32 -40q0 -18 30 -30q13 -5 21 -8l13 11l-12 6q-15 7 -5 18q3 2 5 5l46 39l15 -35q18 -44 32 -44q4 0 10 3q19 7 38 34l-7 17l-9 -10q-12 -13 -18 1l-3 6l-24 58z" />
    <glyph glyph-name="plus" unicode="+" horiz-adv-x="377" 
d="M354 519h-8l2 -6q1 -2 1 -4q0 -3 -4 -3h-139l1 132q0 25 -19 27q-7 1 -21 -6q-5 -2 -10 -5v-8l6 3q7 3 8 -4q0 -12 -1 -139l-132 1q-25 0 -27 -19q-1 -7 6 -21q2 -5 5 -10h8l-2 6q-1 2 -1 4q0 3 4 4q5 0 139 -1l-1 -132q0 -25 19 -27q7 -1 21 6l10 5v8l-6 -2q-2 -1 -4 -1
q-3 0 -3 4v139l132 -1q25 0 27 19q2 14 -11 31z" />
    <glyph glyph-name="comma" unicode="," horiz-adv-x="117" 
d="M107 282q0 20 -12 20q-2 0 -53 -17q-21 -7 -18 -34q-2 -33 18 -33q8 0 25 10q2 -8 2 -14q0 -45 -59 -87v-12q93 27 96 151v0q1 2 1 16z" />
    <glyph glyph-name="hyphen" unicode="-" horiz-adv-x="193" 
d="M176 412l-5 10h-8q0 -2 2 -6q3 -7 -3 -8h-124q-11 0 -16 -2q-10 -6 -11 -16q-1 -8 11 -32h8l-2 6q-3 8 4 8h123q11 0 16 2q10 6 11 16q1 8 -6 22z" />
    <glyph glyph-name="hyphen" unicode="&#x2010;" horiz-adv-x="193" 
d="M176 412l-5 10h-8q0 -2 2 -6q3 -7 -3 -8h-124q-11 0 -16 -2q-10 -6 -11 -16q-1 -8 11 -32h8l-2 6q-3 8 4 8h123q11 0 16 2q10 6 11 16q1 8 -6 22z" />
    <glyph glyph-name="period" unicode="." horiz-adv-x="105" 
d="M31 283q-21 -7 -18 -34q-2 -33 17 -33t57 34q7 7 8 30q0 20 -11 20q-2 0 -53 -17z" />
    <glyph glyph-name="slash" unicode="/" horiz-adv-x="316" 
d="M91 39q-7 0 -14 4t-4 11l111 297h-1l115 310q8 19 6 30q-6 35 -57 30q-11 -1 -28 -3l-5 -13h11q7 1 14 -3.5t4 -11.5l-122 -329h1l-105 -278q-7 -19 -6 -29q5 -36 58 -31q11 1 27 3l5 14q-2 0 -10 -1z" />
    <glyph glyph-name="zero" unicode="0" horiz-adv-x="334" 
d="M38 330q-28 62 -28 149q0 88 35 159q43 89 123 88q81 -1 123 -89q33 -71 33 -160q0 -88 -35 -159q-43 -89 -124 -88q-82 1 -127 100zM258 479q0 76 -13 135q-22 96 -77 97q-53 0 -77 -96q-15 -59 -15 -135q-1 -77 13 -135q23 -97 76 -97q55 -1 78 96q15 60 15 135z" />
    <glyph glyph-name="one" unicode="1" horiz-adv-x="216" 
d="M140 317l2 374q0 38 -24 38q-21 0 -49 -13q-7 -3 -21 -11v-19q3 2 13 6q8 3 14 0q6 -4 6 -10q0 -18 1 -49h-1l-2 -316q0 -37 -15 -49t-54 -12v-20l196 -1v20q-36 0 -51 13.5t-15 48.5z" />
    <glyph glyph-name="two" unicode="2" horiz-adv-x="333" 
d="M306 342l-18 -38q-12 -19 -34 -18l-174 1q106 78 149 124q79 85 80 170q0 61 -43 100t-105 40q-99 0 -129 -88q-11 -33 -2 -62q8 -28 24 -28q19 0 49 28q9 9 15 16l-5 17q-3 -3 -12 -10q-19 -14 -28.5 2t-7.5 31q5 34 31 56t62 21q39 0 64 -30t25 -69q-1 -154 -230 -341
l-7 -30l285 -2l28 110h-17z" />
    <glyph glyph-name="three" unicode="3" horiz-adv-x="324" 
d="M140 519l145 151l1 41l-250 2q-26 0 -26 -17q0 -14 9 -34q4 -9 8 -14h12q0 1 -3 8.5t-1 13.5q3 8 12 8q66 -1 207 -2l-182 -193h1l-2 -2l15 4q11 1 21 1q52 0 95 -38t42 -90q-1 -49 -23 -80q-26 -35 -73 -34q-35 0 -62 24t-27 59q0 21 10 42q-24 0 -39.5 -15t-15.5 -39
q-1 -47 42 -72q36 -21 86 -21q68 -1 114 35q50 38 54 104q4 69 -48.5 115.5t-121.5 42.5z" />
    <glyph glyph-name="four" unicode="4" horiz-adv-x="404" 
d="M368 357q26 0 26 17q0 22 -17 48h-12q0 -2 3 -9t1 -13q-3 -8 -12 -8h-14q-38 -1 -29 -1l1 291q0 38 -24 38q-21 0 -49 -13q-7 -3 -21 -11v-19q3 1 13 6q4 1 7 1q13 0 13 -11q0 -18 1 -50h-1l-1 -232q-69 0 -80 1q-53 1 -74 7q-36 11 -36 46q0 18 10 44l73 192q2 8 2 14
q0 21 -21 22q-9 0 -34 -11q-13 -6 -21 -11v-19q2 2 13 6q6 2 14 0q8 -3 6 -9q-12 -29 -91 -242q-4 -11 -4 -19q0 -26 25 -41q20 -12 48 -12q47 0 170 -1l-1 -50q-1 -38 -15.5 -50t-53.5 -11v-20l196 -1v19q-35 1 -51 14.5t-15 47.5l1 51z" />
    <glyph glyph-name="five" unicode="5" horiz-adv-x="328" 
d="M84 511l1 162l152 -1q9 -1 12 -9q2 -7 -5 -22h13q1 2 8 14q9 20 9 34q0 17 -26 17q-80 1 -206 2l-1 -208h-1v-31q9 5 48 13q67 5 112 -27q50 -35 49 -101q0 -50 -25 -83q-27 -36 -75 -36q-36 0 -64 25t-28 61q0 22 10 44q-24 0 -40.5 -16t-16.5 -40q0 -47 45 -74
q37 -23 88 -23q76 -1 122 33q51 38 52 112q1 80 -49 121q-46 38 -127 38q-29 0 -57 -5z" />
    <glyph glyph-name="six" unicode="6" horiz-adv-x="390" 
d="M242 634l4 -16q25 7 49 16q7 3 7 16q0 30 -32 46q-26 13 -59 12q-73 -1 -131 -67q-68 -78 -69 -212q-1 -102 70 -165q57 -51 118 -51q60 0 110 35q70 50 71 153q0 66 -41 107t-107 41q-34 0 -67 -16q-39 -18 -48 -47l10 -6q42 44 87 44q59 0 86 -63q14 -32 13 -68
q-1 -62 -24 -105q-29 -54 -85 -53q-72 2 -108 79q-25 53 -26 118q-1 69 29 144q41 104 122 107q35 2 38 -24q2 -16 -17 -25z" />
    <glyph glyph-name="seven" unicode="7" horiz-adv-x="321" 
d="M68 701h-20q-19 1 -28 -13q-10 -16 11 -34l25 -21l11 9q-6 5 -11 13q-1 10 11 11.5t22 1.5l3 -1v1l170 -1q-103 -101 -164 -202q-85 -141 -79 -211q4 -43 78 -43q24 0 49 4v22q-42 -3 -43 43q-2 72 53 170q78 140 155 217v32z" />
    <glyph glyph-name="eight" unicode="8" horiz-adv-x="377" 
d="M153 460q-33 -16 -57 -54t-24 -75q0 -49 36 -79q33 -29 83 -29q54 0 82 39q26 36 24 91q-2 81 -95 108l-63 15q-95 25 -95 100q0 20 6 43q23 87 132 91q32 1 68 -22q47 -31 49 -83q2 -78 -65 -85q-21 -2 -37 24q51 7 55 66q2 30 -22.5 54t-54.5 25q-31 1 -54.5 -25
t-23.5 -57q0 -52 63 -76q36 -12 106 -38q49 -19 71 -48q27 -35 28 -96q2 -74 -56 -117q-52 -38 -128 -40q-56 -1 -109 33q-62 40 -62 104q0 22 9 47q32 91 99 91q19 0 35 -7z" />
    <glyph glyph-name="nine" unicode="9" horiz-adv-x="390" 
d="M148 278l-4 16q-19 -4 -49 -16q-7 -3 -7 -15q0 -30 32 -46q27 -14 59 -13q73 1 131 67q68 78 69 213q1 101 -70 164q-57 51 -118 51q-60 0 -110 -35q-70 -50 -71 -152q0 -67 40.5 -107.5t107.5 -40.5q33 0 67 16q39 18 48 46l-10 6q-42 -43 -87 -43q-48 0 -76 43
q-24 37 -23 87q1 63 24 105q29 54 85 53q72 -1 108 -79q25 -54 26 -118q1 -69 -29 -144q-42 -104 -122 -107q-35 -1 -38 25q-2 16 17 24z" />
    <glyph glyph-name="colon" unicode=":" horiz-adv-x="107" 
d="M31 292q-21 -7 -18 -34q-2 -33 18 -33q17 0 56 34q9 8 9 30q0 20 -12 20q-2 0 -53 -17zM88 499q9 8 9 30q0 19 -11 19l-53 -17q-21 -7 -18 -33q-2 -33 17 -33q17 0 56 34z" />
    <glyph glyph-name="semicolon" unicode=";" horiz-adv-x="118" 
d="M99 497q8 8 9 30q0 20 -12 20q-2 0 -53 -17q-21 -7 -18 -34q-2 -33 18 -33q18 0 56 34zM106 288q0 19 -11 19q-3 0 -54 -16q-21 -7 -17 -34q-2 -33 17 -33q8 0 25 10q2 -8 2 -14q0 -46 -58 -87v-13q92 27 96 152v0v16z" />
    <glyph glyph-name="less" unicode="&#x3c;" 
d="M10 489l304 -207v83l-219 149l250 156q7 4 9 -7v-5l6 4q0 20 -7 30q-4 5 -13 5q-5 -1 -12 -5v0l-318 -199v-4z" />
    <glyph glyph-name="equal" unicode="=" horiz-adv-x="376" 
d="M22 516h8l-2 6q-1 4 0 6t4 2q102 -1 307 -2q24 0 26 19q1 8 -5 22q-2 4 -5 9h-9l3 -5q3 -8 -4 -8q-73 0 -307 1q-11 0 -16 -2q-10 -6 -11 -16q-1 -8 6 -22zM354 466h-8l2 -6q2 -7 -4 -7q-73 0 -307 1q-23 0 -27 -18q0 -10 11 -32h9q-1 1 -3 6q-3 7 4 8q90 -1 307 -2
q25 0 27 19q1 7 -6 22q-3 5 -5 9z" />
    <glyph glyph-name="greater" unicode="&#x3e;" 
d="M360 488l-304 208v-84l219 -149l-251 -156q-6 -4 -8 7v5l-6 -4q0 -35 20 -35q4 1 12 6v0l318 198v4z" />
    <glyph glyph-name="question" unicode="?" horiz-adv-x="308" 
d="M99 273q-13 -5 -10 -24q-2 -22 10 -22q5 0 12 4q23 14 36 27q5 5 5 20q0 13 -7 13zM151 737q-53 -1 -90 -31t-49 -82q-2 -9 -2 -17q0 -16 11 -39q13 -26 26 -26q16 0 50 39l-8 10q-8 -10 -15 -10q-11 0 -11 27q0 51 34 85q29 29 60 27q37 -2 58 -51q18 -42 13 -82
q-5 -39 -44 -90q-26 -32 -53 -63q-28 -39 -28 -75q0 -11 2 -19l34 3q-2 5 -2 11q0 19 20 48q10 14 49 43.5t54 48.5q30 39 33 93q5 77 -54 120q-42 31 -88 30z" />
    <glyph glyph-name="at" unicode="@" horiz-adv-x="519" 
d="M250 243q-86 1 -147.5 64t-60.5 149q1 102 70 161.5t172 58.5q67 0 125 -47q61 -50 65 -115q4 -71 -39 -122q-22 -26 -64 -33q-10 -2 -20 2v1q-10 4 -8 23l14 150q-1 5 6 14q5 2 9 0l8 -3l1 11q-1 1 -13 7q-21 10 -29 9q-14 -3 -22 -20q-1 -3 -4 -7q-19 26 -65 26
q-50 1 -83 -30t-38 -81t22.5 -84.5t77.5 -34.5q51 -1 73 20q6 -20 26 -24q11 -5 31 -6q39 -1 78 35q74 68 68 168q-5 82 -65.5 137.5t-142.5 55.5q-119 1 -201.5 -74t-83.5 -193q0 -97 66 -170t162 -73q110 -1 198 87l-22 7q-90 -69 -164 -69zM298 394q-3 -31 -60 -30
q-57 0 -65 78q-4 37 15 71q22 40 60 39q21 0 40.5 -12t20.5 -31z" />
    <glyph glyph-name="A" unicode="A" horiz-adv-x="515" 
d="M491 255q-9 -4 -13.5 4t-8.5 16v0l-165 388q-2 3 -3 9q-9 24 -30 28q-14 3 -42 -11q-3 -2 -18 -10l-1 -16q1 0 12 5q10 4 15 -8q2 -6 -1 -11l-149 -353q-12 -27 -29 -36.5t-48 -9.5v-22l163 -1v22h-15q-44 0 -44 27q1 8 6 20l37 91l188 -2l59 -146q9 -17 30 -21
q14 -3 49 13q13 6 22 11v19zM168 416l78 188q2 5 6 18q5 -22 19 -57l61 -150z" />
    <glyph glyph-name="B" unicode="B" horiz-adv-x="448" 
d="M368 479q-36 22 -73 24q9 4 32 19q48 39 48 87q0 39 -38 72q-30 26 -94 21q-38 -3 -70 -23q-8 -5 -22 -15v5q-8 28 -35 31q-13 1 -42 -12q-13 -6 -19 -9v-17q2 1 12 5q14 6 15 -7v-7v-18q1 -8 1 -16l-2 -315q0 -36 -18 -47q-11 -7 -53 -9v-22l191 -1v22q-37 2 -46 12
t-8 47l3 219q1 82 59 133q26 23 54 24q24 1 38.5 -17t15.5 -43q1 -24 -13 -55.5t-32 -49.5q-38 -37 -63 -43l9 -15q26 11 46 8q46 -6 73 -35.5t27 -75.5q0 -55 -40 -86q-32 -24 -62 -19q-31 5 -59 39l-12 -10q9 -13 35 -37q34 -23 64 -23q64 1 106 41t42 103q0 72 -70 115z
" />
    <glyph glyph-name="C" unicode="C" horiz-adv-x="452" 
d="M418 364q-19 -49 -66 -81.5t-99 -32.5q-85 1 -129 71q-38 59 -37 149q0 84 35 144q42 73 120 72q64 0 107 -45v0q6 -7 19 -37q3 -14 -9 -30l-8 -11l17 -5q16 16 31 39q9 13 9 23q1 24 -22 41v1q-6 4 -17 11v0q-62 38 -129 38q-103 1 -168 -75q-62 -72 -62 -177
q0 -104 60 -172q63 -71 165 -72q67 0 124 35t83 95z" />
    <glyph glyph-name="D" unicode="D" horiz-adv-x="496" 
d="M425 623v0q-53 54 -157 68q-21 3 -42 15v0q-18 12 -50 48q-8 13 -2 20q0 1 17 12l-14 12q-3 -1 -22 -10q-29 -14 -42 -29q-8 -11 -8 -24q0 -14 9 -30q4 -7 20.5 -17t25.5 -11q22 -7 61 -13q52 -7 61 -9q16 -5 33 -11q21 -7 36 -22h1q51 -55 50 -162q0 -91 -37 -145
q-43 -64 -130 -63q-52 0 -67.5 14.5t-15.5 64.5l1 158q0 56 3 70q8 34 38 55l-18 15q-41 -14 -67 -54q-13 -20 -27 -78v-26l-1 -164q0 -36 -18 -47q-12 -7 -53 -9v-22l239 -2q105 -1 170.5 62.5t66.5 168.5q0 97 -61 165z" />
    <glyph glyph-name="E" unicode="E" horiz-adv-x="417" 
d="M387 373q-2 -35 -26 -69t-56 -44q-27 -8 -79 -8q-67 1 -73 49l1 154h34q30 0 42 -15q8 -11 13 -43h18l1 133h-18q-3 -54 -56 -54h-34v78q0 56 29 94q32 42 87 42q27 0 50 -21t24 -48q0 -21 -12 -33l19 -5q34 34 35 54q1 21 -23 42q-14 9 -27 19q-34 19 -70 19
q-65 1 -111 -31v4q-10 27 -35 29q-14 1 -46 -13l-20 -10v-18q2 2 12 6q15 6 16 -8q1 -9 -1 -368q0 -37 -18 -48q-12 -7 -53 -9v-21l387 -3l10 146h-20z" />
    <glyph glyph-name="F" unicode="F" horiz-adv-x="394" 
d="M359 680q-9 7 -27 20q-32 18 -70 18q-67 1 -111 -30v-1q-11 13 -14 16q-8 7 -19 7q-19 1 -49 -13q-12 -6 -21 -11v-19l13 6q10 4 20 -7q2 -3 3 -9l-3 -351q0 -36 -18 -47q-13 -8 -53 -9v-22l211 -2v22q-40 2 -53 10q-19 12 -18 47l1 56h-1l1 95h34q30 0 41 -15
q8 -11 12 -43h18l1 132h-18q-3 -55 -53 -54l-35 1l1 56v43q6 51 35.5 83.5t78.5 31.5q27 0 50 -21t24 -48q0 -18 -12 -33l19 -5q11 13 22 25q13 16 13 30q2 21 -23 41z" />
    <glyph glyph-name="G" unicode="G" horiz-adv-x="514" 
d="M299 431v-22h17q55 0 55 -45v-65q0 -26 -90 -49h-16q-87 0 -133 69q-41 59 -40 150q0 85 38 146q44 71 124 70q68 0 112 -44v-1q6 -6 19 -36q4 -14 -9 -31l-8 -11l18 -5q21 21 32 39q8 14 9 24q1 24 -23 41v0q-6 4 -17 12l-1 -1q-62 38 -135 38q-105 1 -172 -72t-68 -179
q-1 -91 49 -156q52 -68 140 -84v0q23 -5 47 -5q8 0 36 3v0q27 4 105 27q31 3 53 -18l1 137q0 44 52 44h10v22z" />
    <glyph glyph-name="H" unicode="H" horiz-adv-x="575" 
d="M352 695v-22q41 -2 53 -10q19 -12 18 -47l-1 -70q-54 39 -117 39q-91 0 -153 -68l1 128q2 51 -36 55q-14 2 -42 -11q-11 -5 -19 -10v-16l12 5q14 6 15 -7v-7v-18q1 -8 1 -17l-2 -314q0 -36 -18 -47q-13 -8 -53 -9l-1 -22l211 -2v22q-39 2 -52 10q-18 11 -18 47v32l1 107
q37 99 111 105q69 5 113 -46.5t44 -121.5q0 -104 -110 -175l-2 -17q102 31 159 115q20 30 26 83l-1 -1v20l1 211q0 36 19 47q12 8 52 9l1 22z" />
    <glyph glyph-name="I" unicode="I" horiz-adv-x="231" 
d="M150 305l1 32l2 309q2 51 -36 55q-15 2 -43 -11q-11 -5 -18 -10v-16l11 5q14 7 15 -7v-7v-18q1 -7 1 -16l-2 -315q0 -36 -18 -47q-13 -8 -53 -9v-22l211 -1v21q-41 3 -53 10q-19 11 -18 47z" />
    <glyph glyph-name="J" unicode="J" horiz-adv-x="182" 
d="M171 672q1 22 -6 34q-11 19 -31 21q-15 2 -42 -11q-11 -5 -18 -10l-1 -16q2 1 12 5q14 6 15 -7v-7v-18q1 -9 1 -16l-4 -439q0 -46 -24 -75q-18 -22 -63 -48v-23q38 14 120 55q31 16 37 61q0 4 1 77z" />
    <glyph glyph-name="K" unicode="K" horiz-adv-x="523" 
d="M473 671v22l-185 1v-21q49 -1 49 -26q0 -12 -22 -32l-164 -149l2 179q2 51 -36 55q-17 2 -43 -11q-3 -2 -18 -10v-16l11 5q14 7 15 -8v-6v-18q1 -8 1 -17l-2 -314q0 -37 -18 -48q-12 -7 -53 -8v-22l211 -2v22q-40 2 -53 10q-19 12 -18 47l1 32v92l59 51l200 -232
q17 -25 41 -24q14 1 44 26q12 10 18 16l-4 18l-12 -9q-10 -8 -19 4q-3 5 -217 247l116 107q43 40 96 39z" />
    <glyph glyph-name="L" unicode="L" horiz-adv-x="418" 
d="M387 373q-3 -37 -25.5 -70t-56.5 -43q-27 -8 -79 -8q-24 0 -107 2q33 15 33 61l2 333q2 53 -36 56q-13 1 -42 -12q-7 -3 -19 -9v-16q2 1 11 4q5 2 8 2q7 0 7 -9q0 3 -1 -90q0 -120 -1 -266q0 -37 -17 -47q-12 -7 -53 -9v0l-1 -1l1 -24h387l10 146h-21z" />
    <glyph glyph-name="M" unicode="M" horiz-adv-x="669" 
d="M656 478q-2 96 -82 172q-69 65 -149 65q-28 0 -56 -12l-37 -16l-32 19q-26 12 -57 12q-76 0 -152 -59q-43 -33 -64 -89q-16 -41 -16 -86q-1 -86 52 -161q11 -21 11 -39q0 -22 -20.5 -32t-43.5 -8v-16l180 -2l1 17l-17 17q-18 15 -59 92q-55 103 -55 182q0 126 124 125
q33 0 71 -19q44 -23 44 -52l-2 -283q0 -36 -19 -47q-13 -8 -52 -9l-1 -22l211 -2v22q-40 2 -52 10q-18 12 -18 47v32l2 251q0 31 45 51q37 16 72 16q34 0 63 -19.5t40 -50.5t11 -66q0 -72 -47 -158q-33 -60 -74 -103q-20 -21 -20 -41q0 -31 40 -52l13 10q-11 14 -11 26
q0 8 7 13q152 112 149 265z" />
    <glyph glyph-name="N" unicode="N" horiz-adv-x="553" 
d="M543 668v22l-187 2v-22q34 -2 48 -13t14 -44l1 -311q0 -24 -22 -24q-12 0 -29 10q-39 23 -77 76q-7 10 -58 88q-74 114 -81 163v29q2 51 -36 55q-14 2 -42 -11q-11 -5 -19 -10v-16q2 1 12 5q14 6 15 -7v-7v-18q1 -7 1 -16l-2 -315q0 -35 -18 -47q-12 -8 -53 -9v-22h210
v20q-40 3 -52 10q-18 11 -18 48v31l1 109q23 -47 94 -121q51 -52 110 -78q42 -18 71 -18h64q36 0 47 -1v22q-40 2 -44 4q-15 8 -15 46l2 314q0 38 14.5 46.5t48.5 9.5z" />
    <glyph glyph-name="O" unicode="O" horiz-adv-x="522" 
d="M178 699l-7 -35q-16 -10 -31 -26q-61 -66 -62 -172q-1 -93 43 -154q49 -70 139 -70q90 -1 134 69q36 57 37 153q0 80 -27 136q-33 70 -103 85q-23 5 -44.5 -5.5t-28.5 -32t-4 -31.5l4 -14l-19 3q-2 4 -8 23q-10 31 -6 50q5 29 34 32q145 17 228 -88q55 -70 55 -159
q-1 -107 -73 -177t-179 -69q-109 1 -179.5 70.5t-69.5 178.5q0 83 44.5 146t122.5 87z" />
    <glyph glyph-name="P" unicode="P" horiz-adv-x="446" 
d="M423 573q-9 98 -115 126q-23 6 -43 6q-75 0 -112 -46v2h-1q0 15 -10.5 26t-25.5 13q-14 2 -42 -11q-11 -5 -19 -10v-16q2 1 12 5q14 6 15 -7v-7v-18q1 -8 1 -16l-2 -315q0 -36 -18 -47q-13 -8 -53 -9v-22l210 -1l1 22q-41 2 -53 9q-18 11 -18 48l3 264q1 70 63 97
q19 8 40 8q28 0 54 -16q54 -33 49 -115q-2 -38 -28 -74q-28 -39 -64 -43q-33 -4 -74 23l-9 -14q14 -11 48 -28q45 -14 75 -5q129 39 116 171z" />
    <glyph glyph-name="Q" unicode="Q" horiz-adv-x="523" 
d="M311 249l53 -12q70 29 109 89.5t39 136.5q1 110 -69 179t-180 70q-109 1 -180 -68t-72 -178q-1 -106 68 -176t175 -72v-1q37 -1 64 -15q36 -18 33 -50q-1 -13 -19 -21l12 -16l52 32q25 15 25 28q0 9 -10 17q-56 43 -160 50q-159 10 -158 224q1 95 37 153q44 71 133 70
q90 -1 132 -72q36 -58 35 -153q-1 -181 -119 -215z" />
    <glyph glyph-name="R" unicode="R" horiz-adv-x="476" 
d="M461 289l-11 -9q-10 -8 -19 4q-2 4 -109 125q102 38 102 145q0 116 -116 147q-23 6 -43 6q-73 0 -112 -46v2q-4 35 -36 39q-15 2 -43 -11q-11 -5 -18 -10v-16l11 5q11 5 13 -1t3 -13l-1 -18q1 -7 1 -16l-2 -315q0 -36 -18 -47q-13 -8 -53 -9v-22l211 -1v22q-41 2 -53 9
q-17 10 -17 48l2 264q0 70 63 97q19 8 40 8q28 0 54 -16q54 -33 49 -115q-2 -37 -17 -68q-19 -38 -49 -46q-12 -3 -21 -3q-21 0 -61 23l-12 -10l164 -188q16 -25 41 -24q13 1 44 26q12 10 18 16z" />
    <glyph glyph-name="S" unicode="S" horiz-adv-x="354" 
d="M94 624q0 30 24 48t55 18q28 0 59.5 -18t42.5 -42q9 -19 -3 -23q-6 -1 -11 -3l10 -10q31 5 33 6q20 6 23 20q4 19 -30 50q-45 41 -125 41q-55 0 -92 -32q-40 -33 -40 -87q-1 -64 63 -107q40 -20 118 -63q65 -37 64 -91q0 -42 -27 -68t-69 -26q-89 1 -122 87q-9 23 3 27
q6 2 11 3l-10 12q-26 -4 -34 -7q-19 -7 -22 -23q-5 -27 36 -67q54 -53 144 -53q66 0 107.5 39t41.5 105q0 70 -64 116q-78 41 -121 65q-65 36 -65 83z" />
    <glyph glyph-name="T" unicode="T" horiz-adv-x="411" 
d="M386 279q-25 -32 -89 -32q-80 1 -123 72q-34 59 -34 145q1 146 77 184l20 10l131 1l1 34l-141 1v1q-1 0 -2 -1l-203 2l-13 -115h21q13 43 23 55q15 19 51 23l59 -1q-111 -68 -112 -208q-1 -99 48 -161q54 -68 150 -71q113 -4 151 57z" />
    <glyph glyph-name="U" unicode="U" horiz-adv-x="453" 
d="M443 676v22l-187 1v-22q35 -2 47 -11q15 -12 15 -46l-2 -278q-28 -77 -113 -76q-123 1 -123 106q0 25 7 49h-1l40 203q7 24 7 41q0 11 -4 18t-9.5 14t-16.5 8q-14 2 -43 -12q-7 -3 -18 -9v-16q3 2 11 5q14 6 15 -8q-1 -6 -8 -41q-2 -10 -49 -219l1 -1q-2 -13 -2 -25
q0 -47 28 -84q50 -67 139 -68q86 0 136 42v-14h1v-28h126v21q-36 2 -45 8q-17 11 -17 49l2 315q0 38 14.5 46.5t48.5 9.5z" />
    <glyph glyph-name="V" unicode="V" horiz-adv-x="462" 
d="M423 642q-16 31 -19 35q-15 20 -33 20q-13 0 -29 -9q-21 -12 -48 -25v-17q15 7 26 7q19 0 36 -33q45 -85 45 -141q0 -102 -69 -159q-12 -10 -23 -10q-14 0 -22 16v0q-37 72 -105 235q-28 66 -58 127q-11 10 -30 10q-20 0 -36 -9q-21 -12 -48 -25v-17q22 10 33 6t22 -29
l48 -106l112 -262q19 -41 31 -41q44 0 107 88q49 67 73 127q16 40 16 84q0 71 -29 128z" />
    <glyph glyph-name="W" unicode="W" horiz-adv-x="626" 
d="M615 388l1 1l-48 220q-7 31 -8 41q1 14 15 8l12 -5v16q-6 4 -19 10q-29 14 -44 12q-14 -1 -27 -22q-5 -6 -5 -19q0 -17 7 -40l39 -203l-1 -1q1 -9 1 -20q0 -134 -125 -133q-34 0 -52 11q-10 6 -10 34l1 236q0 33 14 44.5t48 11.5v22l-189 1v-21q37 -2 45.5 -11t8.5 -46
l-2 -236v-20q-2 -9 -8 -13q-22 -12 -58 -12q-122 1 -122 132q0 13 1 23l-1 1l42 202q7 34 7 41q0 13 -4 19q-8 12 -9 13q-7 7 -19 8q-18 2 -51 -14q-6 -3 -12 -7v-16q14 7 20 7q7 0 7 -9q0 -2 -8 -42q-3 -9 -51 -219l1 -1q-2 -11 -2 -23q0 -49 29 -86q52 -67 145 -68
q85 -1 132 28q66 -30 124 -30q93 -1 146 66q30 38 30 88q0 11 -1 21z" />
    <glyph glyph-name="X" unicode="X" horiz-adv-x="511" 
d="M501 680v13q-14 4 -33 4q-80 0 -138 -67q-12 -14 -66 -103l-1 1h1l-38 57q0 2 -2 5l-35 54h-1l-17 27q-11 19 -24 26q-21 12 -38 4q-12 -6 -28 -32q-4 -7 -10 -17l10 -14l6 10q8 13 17 1l4 -6l10 -15q4 -6 10 -14l3 -4l95 -146q-57 -104 -90 -145q-55 -68 -126 -75v-14
q14 -3 33 -3q81 0 139 66q8 9 76 122l55 -85q1 -2 3 -5l35 -54l18 -26q27 -44 61 -30q14 6 29 31q6 9 9 17l-9 14q-1 -2 -6 -9t-10 -7q-3 0 -7 5q0 1 -4 6l-11 16q-5 6 -10 14l-2 4l-112 171q29 51 78 127q55 68 126 76z" />
    <glyph glyph-name="Y" unicode="Y" horiz-adv-x="428" 
d="M390 694q-20 11 -33 19l-10 -6q7 -4 16 -18q1 -9 -9 -24q-32 -48 -37 -58l-87 -127q-33 49 -90 147q-25 43 -52 84q-8 5 -18 5q-12 0 -31 -12q-15 -11 -29 -21l2 -11q15 9 23 6q9 -2 18 -17l138 -231h-1l1 -1l-1 -122q0 -36 -18 -47q-12 -7 -53 -9v-22l210 -1l1 22
q-39 1 -52 9q-19 12 -19 48l1 112q1 1 1 2v0q34 58 99 151q34 49 54 83q4 24 -24 39z" />
    <glyph glyph-name="Z" unicode="Z" horiz-adv-x="514" 
d="M491 278q-56 -59 -145 -54q-38 2 -91 29q-58 30 -75 33q-25 5 -40 6l274 394v9l-359 3l-14 -117h23q25 90 103 89l153 -1l-291 -416h1l-20 -29q36 15 81 15q32 0 57 -7l92 -26q38 -9 72 -11q67 -4 132 27q27 13 60 47z" />
    <glyph glyph-name="bracketleft" unicode="[" horiz-adv-x="119" 
d="M11 74l4 609q-2 46 32 49q14 1 62 -24v-14l-10 4q-7 3 -14 1q-8 -2 -8 -9q0 1 -4 -624v-6q0 -11 13 -6l10 4v-14q-4 -2 -16 -9q-24 -11 -38 -10q-32 3 -32 49h1z" />
    <glyph glyph-name="backslash" unicode="\" horiz-adv-x="316" 
d="M225 39q7 0 13.5 4.5t4.5 10.5l-226 607q-7 20 -6 30q5 35 58 30q11 -1 27 -3l5 -13h-10q-8 1 -14.5 -3t-3.5 -12l225 -607q8 -18 6 -29q-6 -36 -58 -31q-7 1 -27 3l-5 14q3 0 11 -1z" />
    <glyph glyph-name="bracketright" unicode="]" horiz-adv-x="118" 
d="M108 74l-4 609q2 46 -32 49q-13 1 -38 -11q-7 -4 -24 -13v-14l10 4q7 3 14 1q8 -2 8 -9q1 -104 4 -624v-6q-1 -11 -13 -6l-10 4v-14q4 -2 16 -9q24 -11 37 -10q32 3 32 49z" />
    <glyph glyph-name="asciicircum" unicode="^" horiz-adv-x="425" 
d="M383 473q-16 24 -65 98q-35 53 -43 63q-22 29 -37 29q-8 0 -15 -9q-32 -42 -130 -179h-83q76 106 161 219q27 36 48 36t50 -37q11 -14 71 -105q17 -25 75 -115h-32z" />
    <glyph glyph-name="underscore" unicode="_" horiz-adv-x="376" 
d="M359 170l-5 10h-8l2 -6q2 -7 -4 -8q-88 1 -307 2q-24 0 -27 -19q0 -7 6 -22q3 -5 5 -9h9l-3 6q-4 7 4 7q73 0 307 -1q25 0 27 19q1 7 -6 21z" />
    <glyph glyph-name="grave" unicode="`" horiz-adv-x="133" 
d="M39 647q-8 -12 -19 -31q-7 -11 -10 -23l12 -15q6 19 18 21q3 0 61 -42l22 21l-26 33q-35 44 -46 44q-6 0 -12 -8z" />
    <glyph glyph-name="a" unicode="a" horiz-adv-x="393" 
d="M361 276q0 -2 -2 -5q-4 -14 -7 -17t-16 -2q-19 1 -19 32l1 207v11q0 5 7 8q7 2 12 0l11 -5v16q-6 4 -18 10q-28 14 -41 11q-20 -3 -28 -27q-1 -2 -4 -10q-30 36 -93 36q-68 0 -110.5 -42t-42.5 -111q-1 -69 42 -115.5t111 -46.5q70 0 96 27q14 -36 56 -36q51 -1 67 59
h-22zM176 256q-47 0 -76 45q-26 39 -26 89q0 48 22 83q25 42 70 41q29 0 55 -15q31 -18 34 -44l-1 -158q0 -42 -78 -41z" />
    <glyph glyph-name="b" unicode="b" horiz-adv-x="332" 
d="M313 424q-17 49 -57.5 78.5t-91.5 29.5q-23 0 -44 -6h1l-3 -16h1q10 4 21 4q40 0 74 -36q29 -31 43 -73q10 -30 10 -61q0 -42 -19 -73q-23 -36 -63 -36q-47 0 -79.5 37.5t-32.5 85.5q0 17 3 34q10 59 54 256v0l13 54q5 21 -24 35q-10 5 -42 -2q-7 -1 -20 -5l-3 -15
q1 0 11 2q5 1 11 -3.5t5 -9.5q-1 -4 -10 -41v0q-14 -63 -56 -259q-5 -23 -5 -42q0 -40 18 -69q49 -77 136 -77q80 0 128 67q30 41 30 91q0 24 -9 50z" />
    <glyph glyph-name="c" unicode="c" horiz-adv-x="292" 
d="M171 247q-47 4 -73 47q-22 37 -22 88q0 48 25 89q29 49 74 47q19 -1 39.5 -18t20.5 -35q0 -12 -9 -22l17 -21q30 17 31 46q0 19 -24 39q-40 32 -90 32q-74 0 -119 -64q-31 -44 -31 -97q0 -80 60 -128q40 -32 88 -32q78 0 124 70l-21 2q-28 -48 -90 -43z" />
    <glyph glyph-name="d" unicode="d" horiz-adv-x="339" 
d="M326 412l-62 298q-1 5 5 9t11 3l11 -2l-3 15q-4 1 -19 5q-31 7 -42 2q-31 -14 -26 -34l13 -53l28 -137q-40 17 -79 17q-108 0 -144 -118q-9 -29 -9 -55q0 -103 113 -137q26 -8 51 -8q67 0 112 51q43 48 43 116q0 14 -3 28zM129 245q-59 17 -59 88q0 29 10 62
q35 115 106 115q10 0 23 -3q52 -12 52 -110q0 -32 -5 -50q-30 -106 -101 -106q-12 0 -26 4z" />
    <glyph glyph-name="e" unicode="e" horiz-adv-x="295" 
d="M170 245q-94 1 -93 145l82 -1v26h-81q1 39 19 66q21 31 58 31q50 -1 63 -52h54q-33 78 -113 79q-68 0 -108 -47.5t-41 -116.5q0 -68 41 -113t108 -45q80 -1 126 72l-21 11q-40 -55 -94 -55z" />
    <glyph glyph-name="f" unicode="f" horiz-adv-x="289" 
d="M257 690q-36 32 -82 32q-27 0 -52 -12v0q-38 -20 -52 -75q-8 -34 -9 -103l-2 -224q-1 -57 -49 -58l-1 -23l174 -1v22q-35 2 -49 14t-14 46l1 202l66 -1l1 22l-66 1v85q0 30 18 57.5t47 26.5q18 0 36.5 -17.5t18.5 -35.5q0 -12 -9 -22l17 -21q27 19 28 46q-1 20 -22 39z
" />
    <glyph glyph-name="g" unicode="g" horiz-adv-x="351" 
d="M324 517q-29 13 -40 11q-22 -4 -29 -26l-3 -10q-30 35 -92 35q-67 0 -108.5 -41.5t-41.5 -108.5q0 -69 41 -114t109 -46q64 0 89 21v-96q0 -41 -25 -69q-37 -29 -61 -29q-21 0 -44.5 15.5t-27.5 35.5q-5 16 17 25l-8 12q-50 -30 -56 -52q-5 -17 30 -48.5t53 -31.5
q41 0 90 27l60 36q26 15 31 54q2 13 2 66l2 295v10q0 5 7 7.5t12 1.5l10 -5v15q-3 2 -17 10zM249 286q0 -41 -77 -40q-46 0 -75 45q-25 38 -25 87q0 46 21 81q26 42 69 42q29 0 55 -15q30 -18 33 -44z" />
    <glyph glyph-name="h" unicode="h" horiz-adv-x="397" 
d="M240 541q-72 6 -118 -46l2 187q1 19 -5 29q-10 17 -27 19q-13 2 -38 -10q-11 -5 -16 -8v-14l10 4q13 5 13 -7q0 -3 1 -5l-2 -381q0 -57 -50 -58v-23l159 -1l1 23q-49 1 -49 59l1 147q33 48 91 47q49 -1 75 -57q21 -43 21 -98q1 -114 -91 -155l-1 -18q150 45 164 187
q6 63 -36 118.5t-105 60.5z" />
    <glyph glyph-name="i" unicode="i" horiz-adv-x="180" 
d="M125 617q6 6 7 26q0 16 -9 16q-5 0 -12 -2q-19 -8 -44 -17q-18 -6 -14 -30q-2 -28 14 -28q19 0 58 35zM121 308l1 182q2 46 -32 49q-12 1 -37 -10q-8 -4 -16 -9v-14l10 4q12 5 13 -6v-6v-190q0 -58 -50 -58v-23l159 -1l1 23q-49 1 -49 59z" />
    <glyph glyph-name="j" unicode="j" horiz-adv-x="188" 
d="M175 483q1 22 -6 34q-12 21 -32 23q-12 1 -43 -12q-13 -6 -20 -10v-17q4 1 12 5q15 7 16 -7v-7v-19q1 -9 1 -17l-3 -280q0 -45 -25 -76q-20 -25 -65 -50v-24q39 13 124 57q31 16 38 63q0 3 1 79zM171 620q7 6 7 26q0 16 -9 16q-5 0 -12 -2q-21 -9 -45 -17q-17 -6 -14 -30
q-1 -28 15 -28q19 0 58 35z" />
    <glyph glyph-name="k" unicode="k" horiz-adv-x="362" 
d="M339 282q-4 -4 -17 -10q-10 -2 -24 10l-115 160q46 34 64 46q7 5 13 2q4 -3 3 -9t-7 -9q17 -9 31 0q16 10 16 27q0 14 -14 23.5t-29 9.5q-25 0 -50 -22l-88 -60l1 230h1q0 46 -32 49q-12 1 -38 -10q-9 -5 -16 -9v-14l10 4q13 5 13 -6q0 -4 1 -6l-2 -380q0 -58 -50 -59
v-22l159 -1l1 22q-49 1 -49 59v89l23 17l83 -113q17 -23 57 -71q7 -8 14 -8t26 19l28 28z" />
    <glyph glyph-name="l" unicode="l" horiz-adv-x="179" 
d="M120 308l3 372q2 44 -32 49q-13 2 -37 -10l-16 -8l-1 -15l11 5q12 6 13 -7v-5l-2 -381q0 -58 -49 -58v-23l159 -1v23q-49 1 -49 59z" />
    <glyph glyph-name="m" unicode="m" horiz-adv-x="525" 
d="M484 300q3 10 20 56q11 31 11 52q0 20 -6 40q-27 89 -105 90q-52 0 -98 -42q-22 43 -79 44q-54 0 -105 -41v1q2 46 -32 49q-12 1 -37 -10q-6 -3 -17 -9v-14l10 4q13 5 14 -6v-6l-1 -200q0 -57 -49 -58v-23l159 -1v23q-50 1 -49 59l2 166q36 29 69 29q64 -1 63 -72
l-1 -123q0 -58 -49 -59v-22l159 -1v22q-48 2 -48 59l1 162q13 32 56 32q34 0 61 -23t27 -56q0 -8 -29 -90q-9 -25 -9 -50q0 -76 89 -93l2 17q-36 7 -36 52q0 18 7 42z" />
    <glyph glyph-name="n" unicode="n" horiz-adv-x="355" 
d="M311 306q4 10 22 56q12 31 12 52q0 18 -7 40q-29 89 -115 90q-54 0 -101 -37q0 36 -32 39q-12 1 -37 -10l-16 -8l-1 -15l11 4q12 6 13 -6v-6l-1 -197q0 -57 -49 -58v-23l159 -1v23q-50 1 -49 59l2 173q34 26 66 26q35 0 65.5 -22.5t30.5 -56.5q0 -11 -31 -90
q-10 -25 -10 -50q0 -76 98 -94l2 18q-39 7 -39 52q0 18 7 42z" />
    <glyph glyph-name="o" unicode="o" horiz-adv-x="342" 
d="M242 237q-42 -21 -80 -21q-86 0 -131 90q-21 42 -21 84q0 90 90 135q40 20 78 20q87 0 135 -95q19 -38 19 -77q0 -91 -90 -136zM109 505q-47 -23 -47 -74q0 -38 30 -98q44 -87 103 -87q18 0 38 10q46 23 46 76q0 38 -25 87q-49 96 -105 96q-19 0 -40 -10z" />
    <glyph glyph-name="p" unicode="p" horiz-adv-x="375" 
d="M216 537q-62 0 -92 -34l-3 10q-7 23 -28 27q-12 2 -41 -11q-6 -3 -17 -9v-16l10 5q5 1 12 -1.5t7 -7.5v-11l-4 -394q0 -12 -3 -17q-9 -15 -47 -24l1 -22h34q40 0 64 25q13 13 13 27q0 54 3 369q4 26 34 43q27 15 55 15q43 -1 68 -42q21 -35 21 -80q0 -49 -26 -88
q-29 -45 -76 -45q-41 0 -60 11l2 -15q27 -25 70 -25q67 -1 109 44.5t43 113.5q0 67 -41 109t-108 43z" />
    <glyph glyph-name="q" unicode="q" 
d="M314 78q-4 5 -4 17l1 125h-1l1 60v4l2 204q-1 6 7 18q6 3 12 1l11 -5v15q-4 3 -17 10q-28 14 -41 12q-19 -4 -28 -27l-4 -10q-29 35 -91 36q-67 1 -108.5 -40t-42.5 -109q-1 -69 40 -114.5t109 -46.5q63 -1 89 21l-1 -164q0 -13 13 -27q25 -26 64 -26q25 0 34 -1l1 23
q-13 0 -30 9q-11 6 -16 15zM249 297q-1 -41 -77 -40q-45 1 -74 45q-26 39 -26 87q0 46 23 82q26 42 69 41q28 0 54 -16q30 -18 33 -44z" />
    <glyph glyph-name="r" unicode="r" horiz-adv-x="273" 
d="M250 502q-35 36 -74 36q-27 0 -58 -15q-10 20 -28 22q-13 1 -38 -10q-9 -5 -16 -9v-14l10 4q13 5 13 -6q1 -3 1 -6l-1 -197q0 -57 -49 -58v-23l159 -1v23q-49 1 -49 59l1 128q0 30 15 52q16 26 45 25q45 -1 45 -39q0 -14 -12 -23l10 -15q39 17 39 41q0 12 -13 26z" />
    <glyph glyph-name="s" unicode="s" horiz-adv-x="228" 
d="M63 470q0 42 42 41q38 0 51 -31q6 -14 -2 -17l-8 -2l7 -7q16 2 24 4q15 5 17 14q2 12 -19 35q-28 31 -75 31q-38 0 -61 -23.5t-23 -61.5q-1 -41 40 -70q67 -35 70 -37q45 -29 45 -57q0 -20 -15.5 -32.5t-36.5 -12.5q-37 1 -62 28q-3 4 -6 9q-7 15 10 19l-8 7
q-16 -2 -23 -4q-15 -5 -17 -14q-3 -14 19 -39q29 -33 85 -34q42 0 71.5 26t29.5 67q0 44 -40 73q-34 18 -69 36q-46 28 -46 52z" />
    <glyph glyph-name="t" unicode="t" horiz-adv-x="266" 
d="M241 285q-32 -31 -52 -31q-37 0 -36 56l1 109v0l1 84h81v1h1v22h-1l-80 1v65q2 46 -32 49q-12 1 -37 -10q-8 -4 -16 -9v-14q2 1 10 4q12 6 13 -6v-6v-73h-76l-8 -73h13q8 27 16.5 37.5t30.5 11.5l24 1l-2 -190q-1 -97 74 -97q53 0 90 56z" />
    <glyph glyph-name="u" unicode="u" horiz-adv-x="336" 
d="M277 303l1 232l-110 1v-23q49 -1 49 -59l1 -164q-5 -35 -62 -35q-36 0 -64 18q-32 21 -32 55q0 11 3 20q16 45 32 101q4 14 4 29q0 63 -76 69l-6 -12q31 -16 31 -49q0 -13 -26 -84q-12 -33 -12 -57q0 -16 6 -35q12 -38 43.5 -62.5t70.5 -24.5q54 0 89 24v-23h105l2 20
q-49 2 -49 59z" />
    <glyph glyph-name="v" unicode="v" horiz-adv-x="313" 
d="M284 499q-6 13 -19 31q-14 12 -35 0q-11 -6 -32 -17v-11q15 7 22 4q10 -4 19 -21q27 -51 27 -93q0 -69 -41 -102q-9 -7 -14 -7q-9 0 -12 11v0q-24 43 -70 155q-17 41 -39 85q-7 7 -18 7q-12 0 -32 -10q-15 -9 -30 -17v-11q14 7 22 4q9 -4 15 -19l31 -71l69 -162
q3 -4 4 -8l1 -3q12 -27 21 -27q29 0 71 58q32 45 48 84q11 27 11 56q0 47 -19 84z" />
    <glyph glyph-name="w" unicode="w" horiz-adv-x="474" 
d="M464 508v23l-159 1v-23q50 -1 49 -59l-1 -39v-103q0 -10 -2 -20q-5 -13 -20 -26t-28 -13v0q-13 -3 -22 -3q-33 -2 -58 31q-23 29 -23 63q0 22 9 42q17 37 44 101q14 32 2 48q-8 11 -25 11q-14 0 -32 -10q-14 -8 -29 -16v-15q13 5 21 5q4 0 7 -1q13 -8 13 -18q0 -4 -3 -9
q-10 -22 -45 -98q-10 -22 -10 -49q0 -43 29 -73q-16 -10 -42 -11q-33 -1 -58 31q-23 29 -23 63q0 22 9 42q17 37 44 101q14 32 2 48q-8 11 -25 11q-14 0 -32 -10q-14 -8 -29 -16v-15q20 8 28 3q13 -7 13 -17q0 -4 -3 -9q-11 -23 -45 -98q-10 -22 -10 -49q0 -46 33.5 -78.5
t79.5 -32.5q34 0 71 25q32 -25 64 -25q72 0 94 28v-23h110v22q-48 2 -48 59l1 143q1 57 49 58z" />
    <glyph glyph-name="x" unicode="x" 
d="M350 284l-5 -9q-6 -11 -15 -2l-4 5l-101 127q15 25 39 63q42 52 96 57v11q-11 2 -25 2q-61 0 -105 -50q-11 -12 -32 -48q-77 96 -81 98q-19 9 -35 1q-11 -5 -24 -28q-5 -9 -8 -16l9 -12l5 9q6 11 15 2l4 -5l79 -100q-21 -37 -57 -93q-41 -52 -95 -57v-10q11 -3 25 -3
q61 0 105 50q7 8 49 77v2q99 -124 103 -127q19 -9 35 -1q11 6 24 29q5 9 8 16z" />
    <glyph glyph-name="y" unicode="y" horiz-adv-x="291" 
d="M280 197l1 342h-109v-23q47 -1 48 -59l2 -163q-6 -36 -63 -35q-37 0 -64 17q-31 20 -31 55q0 12 3 21q8 25 31 101q4 14 4 28q0 63 -76 70l-6 -13q31 -16 31 -49q0 -10 -26 -84q-11 -31 -11 -57q0 -50 35.5 -85.5t84.5 -36.5q52 -1 88 25l-3 -95q-1 -43 -25 -69
q-37 -29 -61 -29q-22 0 -44.5 15.5t-27.5 35.5q-4 16 17 25l-8 11q-21 -13 -32 -22q-19 -16 -23 -29q-5 -17 30 -48.5t53 -31.5q41 0 89 27l60 36q27 16 32 54q1 6 1 66z" />
    <glyph glyph-name="z" unicode="z" horiz-adv-x="365" 
d="M346 260q-39 -41 -101 -38q-26 1 -63 20q-42 21 -53 24q-6 1 -13 2l183 248v23l-247 1l-11 -89h20q22 41 22 42q16 24 37 24l105 -1l-180 -244h-1l-20 -30h1l-15 -20q26 11 57 11q22 0 40 -5q31 -9 64 -18q24 -7 50 -8q47 -3 92 19q19 9 42 33z" />
    <glyph glyph-name="braceleft" unicode="{" horiz-adv-x="264" 
d="M242 161h-5q1 -1 2 -4t-2 -4h-41q-40 5 -54 32q-13 21 -12 64q1 29 2 104q1 87 -59 98v3q37 8 50 33q10 18 10 60q0 465 -2 71q0 46 12 71q15 33 52 39h47q4 -1 2 -4l-1 -4h5q6 14 6 18q-1 4 -6 8q-3 1 -9 1h-53q-70 0 -91 -37q-17 -29 -16 -106l1 -36v-51q0 -32 -20 -44
q-14 -8 -50 -10v-29q43 -3 51 -7q18 -9 18 -43q-1 -41 -3 -147q-2 -103 105 -103h52q11 0 15 9q1 6 -6 18z" />
    <glyph glyph-name="bar" unicode="|" horiz-adv-x="70" 
d="M60 715l-4 -611h-46l4 611h46z" />
    <glyph glyph-name="braceright" unicode="}" horiz-adv-x="264" 
d="M22 161h4q0 -1 -1 -4t2 -4h40q40 5 55 31q13 22 12 65q-1 29 -2 104q-1 87 59 98v3q-38 8 -51 34q-9 19 -10 163q-1 68 -61 77h-47q-4 -1 -2 -4l1 -4h-5q-6 14 -6 18t6 8q3 1 9 1h52q72 0 92 -37q16 -29 16 -106v-36q-1 -29 -1 -51q0 -32 20 -44q14 -8 50 -10v-29
q-43 -3 -51 -7q-18 -9 -18 -43q1 -41 3 -147q2 -103 -105 -103h-52q-10 0 -15 9q-1 6 6 18z" />
    <glyph glyph-name="asciitilde" unicode="~" horiz-adv-x="246" 
d="M220 421q-3 4 -7 7l-8 -2l4 -5q4 -4 4 -13q1 -11 -9 -12q-16 0 -68.5 12.5t-78.5 12.5q-17 0 -30 -8q-17 -10 -13 -26q3 -13 21 -25l8 3l-4 4q-8 8 1 15q4 3 18 3q21 0 83 -10q56 -9 63 -7q17 3 26 13q6 8 3 20q-1 6 -13 18z" />
    </font>
</defs>
</svg>
